<svg xmlns="http://www.w3.org/2000/svg" fill="none" viewBox="0 0 24 24"><path fill="currentColor" d="M8.455 8.616a3.23 3.23 0 0 1 2.61 1.396l.029.041 2.709 4.065.018.027a2.15 2.15 0 0 0 1.774.932h1.567l-.696-.697a.539.539 0 0 1 .76-.761l1.617 1.615a.54.54 0 0 1 0 .762l-1.616 1.615a.538.538 0 1 1-.761-.76l.695-.697h-1.566a3.23 3.23 0 0 1-2.689-1.439L12 13.355l-.906 1.36a3.23 3.23 0 0 1-2.689 1.439H5.538a.539.539 0 0 1 0-1.077h2.867a2.15 2.15 0 0 0 1.792-.96l1.156-1.733-1.156-1.733a2.15 2.15 0 0 0-1.792-.96H5.538a.538.538 0 0 1 0-1.076h2.917m8.01-1.458a.54.54 0 0 1 .762 0l1.616 1.615a.54.54 0 0 1 0 .762l-1.616 1.615a.538.538 0 0 1-.761-.762l.696-.696h-1.6a2.16 2.16 0 0 0-1.76.959l-.277.417a.54.54 0 0 1-.896-.598l.277-.417a3.23 3.23 0 0 1 2.689-1.438h1.566l-.695-.697a.54.54 0 0 1 0-.76"/></svg>
